# This file uses centimeters as units for non-parametric coordinates.

mtllib beak.mtl
g default
v -6.524865 2.939349 4.117795
v -6.660587 2.563221 3.847203
v -6.411977 2.540323 3.100374
v -6.013463 2.973608 3.175552
v -6.138415 2.742130 3.143360
v -6.865123 2.920623 3.266219
v -6.202404 2.939842 3.722129
v -6.866553 2.931644 4.340667
v -6.551343 2.714348 3.997823
v -6.865452 2.487833 3.777076
v -6.551334 2.527341 3.561961
v -6.863329 2.357877 3.083574
v -6.865981 2.702593 4.119204
v -6.867313 2.387616 3.498852
v -6.868765 2.688980 3.192190
v -6.865221 2.900615 3.528738
v -6.313179 2.731015 3.622827
v -7.205350 2.939203 4.117795
v -7.069467 2.563133 3.847203
v -7.318067 2.540129 3.100374
v -7.716767 2.973243 3.175552
v -7.591715 2.741818 3.143360
v -6.865085 2.920623 3.266219
v -7.527812 2.939558 3.722129
v -6.863658 2.931644 4.340667
v -7.178775 2.714214 3.997823
v -6.864570 2.487833 3.777076
v -7.178705 2.527207 3.561961
v -6.866637 2.357877 3.083574
v -6.864133 2.702593 4.119204
v -6.862666 2.387617 3.498852
v -6.861342 2.688982 3.192190
v -6.864978 2.900615 3.528738
v -7.416946 2.730779 3.622827
vt 0.625000 0.000000
vt 0.625000 1.000000
vt 0.625000 0.250000
vt 0.625000 0.500000
vt 0.875000 0.250000
vt 0.625000 0.750000
vt 0.875000 0.000000
vt 0.500000 0.125000
vt 0.500000 0.375000
vt 0.500000 0.625000
vt 0.500000 0.875000
vt 0.750000 0.125000
vt 0.500000 0.000000
vt 0.500000 1.000000
vt 0.625000 0.125000
vt 0.500000 0.250000
vt 0.625000 0.375000
vt 0.750000 0.250000
vt 0.500000 0.500000
vt 0.625000 0.625000
vt 0.875000 0.125000
vt 0.500000 0.750000
vt 0.625000 0.875000
vt 0.750000 0.000000
vt 0.500000 0.000000
vt 0.625000 0.000000
vt 0.625000 0.125000
vt 0.500000 0.125000
vt 0.625000 0.250000
vt 0.500000 0.250000
vt 0.625000 0.375000
vt 0.500000 0.375000
vt 0.625000 0.500000
vt 0.500000 0.500000
vt 0.625000 0.625000
vt 0.500000 0.625000
vt 0.625000 0.750000
vt 0.500000 0.750000
vt 0.625000 0.875000
vt 0.500000 0.875000
vt 0.625000 1.000000
vt 0.500000 1.000000
vt 0.750000 0.000000
vt 0.750000 0.125000
vt 0.875000 0.000000
vt 0.875000 0.125000
vt 0.875000 0.250000
vt 0.750000 0.250000
vn 0.239285 0.885863 0.397478
vn 0.339017 -0.669755 0.660678
vn 0.196964 0.944718 0.262131
vn 0.541588 -0.600891 0.587888
vn 0.246266 -0.894644 0.372779
vn 0.367552 -0.837688 0.403962
vn 0.374132 -0.914805 0.152172
vn 0.477317 -0.859846 0.181199
vn 0.333559 -0.754847 -0.564752
vn 0.439593 -0.681217 -0.585407
vn -0.087186 0.307708 -0.947478
vn 0.541075 -0.382429 -0.748990
vn -0.094224 0.909846 -0.404107
vn 0.242644 0.936472 -0.253267
vn -0.062853 0.997934 0.013334
vn 0.279092 0.943546 0.178408
vn 0.690765 -0.667375 0.278306
vn -0.239664 0.885761 0.397477
vn -0.197369 0.944634 0.262130
vn -0.338730 -0.669900 0.660679
vn -0.541331 -0.601123 0.587888
vn -0.367193 -0.837845 0.403962
vn -0.245883 -0.894750 0.372778
vn -0.476948 -0.860051 0.181198
vn -0.373739 -0.914966 0.152173
vn -0.333234 -0.754990 -0.564752
vn -0.439301 -0.681405 -0.585408
vn 0.087055 0.307746 -0.947478
vn -0.540912 -0.382658 -0.748991
vn 0.093834 0.909886 -0.404106
vn -0.243045 0.936368 -0.253268
vn -0.279496 0.943426 0.178407
vn 0.062425 0.997961 0.013334
vn -0.690479 -0.667671 0.278306
s 1
g pasted__BeakInfR
usemtl pasted__BeakDownSG
f 8/13/1 13/8/2 1/1/3
f 1/1/3 13/8/2 9/15/4
f 10/16/5 2/3/6 13/8/2
f 13/8/2 2/3/6 9/15/4
f 14/9/7 11/17/8 10/16/5
f 10/16/5 11/17/8 2/3/6
f 14/9/7 12/19/9 11/17/8
f 11/17/8 12/19/9 3/4/10
f 12/19/9 15/10/11 3/4/10
f 3/4/10 15/10/11 5/20/12
f 15/10/11 6/22/13 5/20/12
f 5/20/12 6/22/13 4/6/14
f 16/11/15 7/23/16 6/22/13
f 6/22/13 7/23/16 4/6/14
f 8/14/1 1/2/3 16/11/15
f 16/11/15 1/2/3 7/23/16
f 1/1/3 9/15/4 7/24/16
f 7/24/16 9/15/4 17/12/17
f 7/24/16 17/12/17 4/7/14
f 4/7/14 17/12/17 5/21/12
f 11/18/8 3/5/10 17/12/17
f 17/12/17 3/5/10 5/21/12
f 9/15/4 2/3/6 17/12/17
f 17/12/17 2/3/6 11/18/8
s 5
f 25/25/18 18/26/19 30/28/20
f 30/28/20 18/26/19 26/27/21
f 26/27/21 19/29/22 30/28/20
f 30/28/20 19/29/22 27/30/23
f 19/29/22 28/31/24 27/30/23
f 27/30/23 28/31/24 31/32/25
f 31/32/25 28/31/24 29/34/26
f 29/34/26 28/31/24 20/33/27
f 29/34/26 20/33/27 32/36/28
f 32/36/28 20/33/27 22/35/29
f 32/36/28 22/35/29 23/38/30
f 23/38/30 22/35/29 21/37/31
f 21/37/31 24/39/32 23/38/30
f 23/38/30 24/39/32 33/40/33
f 24/39/32 18/41/19 33/40/33
f 33/40/33 18/41/19 25/42/18
f 18/26/19 24/43/32 26/27/21
f 26/27/21 24/43/32 34/44/34
f 24/43/32 21/45/31 34/44/34
f 34/44/34 21/45/31 22/46/29
f 22/46/29 20/47/27 34/44/34
f 34/44/34 20/47/27 28/48/24
f 26/27/21 34/44/34 19/29/22
f 19/29/22 34/44/34 28/48/24
g default
v -6.533160 3.083194 4.266017
v -6.614559 3.758056 3.896176
v -6.420220 3.799217 3.407335
v -5.978839 3.021935 3.181595
v -6.146281 3.437217 3.318258
v -6.873818 3.002238 3.306753
v -6.126418 3.082465 3.858551
v -6.875267 3.096888 4.495536
v -6.559719 3.486907 4.142468
v -6.874259 3.893227 3.915137
v -6.559750 3.822457 3.693607
v -6.872162 4.126410 3.521439
v -6.874743 3.507879 4.267468
v -6.876144 4.073047 3.628616
v -6.877534 3.532303 3.397661
v -6.873818 3.037271 3.659392
v -6.321261 3.457093 3.756288
v -7.214476 3.083194 4.266017
v -7.133077 3.758056 3.896176
v -7.327416 3.799217 3.407335
v -7.768797 3.021935 3.181595
v -7.601355 3.437217 3.318258
v -6.873818 3.002238 3.306753
v -7.621218 3.082465 3.858551
v -6.872369 3.096888 4.495536
v -7.187917 3.486907 4.142468
v -6.873376 3.893227 3.915137
v -7.187886 3.822457 3.693607
v -6.875473 4.126410 3.521439
v -6.872893 3.507879 4.267468
v -6.871491 4.073047 3.628616
v -6.870102 3.532303 3.397661
v -6.873818 3.037271 3.659392
v -7.426375 3.457093 3.756288
vt 0.625000 0.000000
vt 0.625000 1.000000
vt 0.625000 0.250000
vt 0.625000 0.500000
vt 0.875000 0.250000
vt 0.625000 0.750000
vt 0.875000 0.000000
vt 0.500000 0.125000
vt 0.500000 0.375000
vt 0.500000 0.625000
vt 0.500000 0.875000
vt 0.750000 0.125000
vt 0.500000 0.000000
vt 0.500000 1.000000
vt 0.625000 0.125000
vt 0.500000 0.250000
vt 0.625000 0.375000
vt 0.750000 0.250000
vt 0.500000 0.500000
vt 0.625000 0.625000
vt 0.875000 0.125000
vt 0.500000 0.750000
vt 0.625000 0.875000
vt 0.750000 0.000000
vt 0.500000 0.000000
vt 0.625000 0.000000
vt 0.625000 0.125000
vt 0.500000 0.125000
vt 0.625000 0.250000
vt 0.500000 0.250000
vt 0.625000 0.375000
vt 0.500000 0.375000
vt 0.625000 0.500000
vt 0.500000 0.500000
vt 0.625000 0.625000
vt 0.500000 0.625000
vt 0.625000 0.750000
vt 0.500000 0.750000
vt 0.625000 0.875000
vt 0.500000 0.875000
vt 0.625000 1.000000
vt 0.500000 1.000000
vt 0.750000 0.000000
vt 0.750000 0.125000
vt 0.875000 0.000000
vt 0.875000 0.125000
vt 0.875000 0.250000
vt 0.750000 0.250000
vn 0.436116 -0.583736 0.684876
vn 0.386500 -0.770149 0.507433
vn 0.415068 0.483425 0.770726
vn 0.581641 0.453304 0.675433
vn 0.556303 0.642564 0.526913
vn 0.433187 0.696713 0.571786
vn 0.652904 0.679260 0.335146
vn 0.502315 0.747119 0.435308
vn 0.188946 0.568459 -0.800721
vn 0.377309 0.559705 -0.737813
vn -0.088457 0.179830 -0.979713
vn 0.487864 0.485678 -0.725331
vn -0.050319 -0.731188 -0.680317
vn 0.412927 -0.765257 -0.493835
vn 0.524966 -0.791600 0.312698
vn 0.034173 -0.996351 0.078207
vn 0.777286 0.519234 0.355278
vn -0.436115 -0.583739 0.684874
vn -0.415069 0.483425 0.770726
vn -0.386500 -0.770149 0.507433
vn -0.581641 0.453303 0.675433
vn -0.433187 0.696713 0.571787
vn -0.556304 0.642564 0.526913
vn -0.502315 0.747119 0.435308
vn -0.652904 0.679259 0.335146
vn -0.188946 0.568459 -0.800721
vn -0.377309 0.559705 -0.737813
vn 0.088457 0.179830 -0.979712
vn -0.487864 0.485678 -0.725331
vn 0.050319 -0.731188 -0.680317
vn -0.412926 -0.765258 -0.493835
vn -0.034173 -0.996351 0.078207
vn -0.524966 -0.791600 0.312698
vn -0.777286 0.519234 0.355278
s 1
g pasted__BeakR
usemtl pasted__BeakUpSG
f 42/61/35 35/49/36 47/56/37
f 47/56/37 35/49/36 43/63/38
f 43/63/38 36/51/39 47/56/37
f 47/56/37 36/51/39 44/64/40
f 36/51/39 45/65/41 44/64/40
f 44/64/40 45/65/41 48/57/42
f 48/57/42 45/65/41 46/67/43
f 46/67/43 45/65/41 37/52/44
f 46/67/43 37/52/44 49/58/45
f 49/58/45 37/52/44 39/68/46
f 49/58/45 39/68/46 40/70/47
f 40/70/47 39/68/46 38/54/48
f 38/54/48 41/71/49 40/70/47
f 40/70/47 41/71/49 50/59/50
f 41/71/49 35/50/36 50/59/50
f 50/59/50 35/50/36 42/62/35
f 35/49/36 41/72/49 43/63/38
f 43/63/38 41/72/49 51/60/51
f 38/55/48 39/69/46 41/72/49
f 41/72/49 39/69/46 51/60/51
f 39/69/46 37/53/44 51/60/51
f 51/60/51 37/53/44 45/66/41
f 43/63/38 51/60/51 36/51/39
f 36/51/39 51/60/51 45/66/41
s 2
f 59/73/52 64/76/53 52/74/54
f 52/74/54 64/76/53 60/75/55
f 61/78/56 53/77/57 64/76/53
f 64/76/53 53/77/57 60/75/55
f 65/80/58 62/79/59 61/78/56
f 61/78/56 62/79/59 53/77/57
f 65/80/58 63/82/60 62/79/59
f 62/79/59 63/82/60 54/81/61
f 63/82/60 66/84/62 54/81/61
f 54/81/61 66/84/62 56/83/63
f 66/84/62 57/86/64 56/83/63
f 56/83/63 57/86/64 55/85/65
f 67/88/66 58/87/67 57/86/64
f 57/86/64 58/87/67 55/85/65
f 59/90/52 52/89/54 67/88/66
f 67/88/66 52/89/54 58/87/67
f 52/74/54 60/75/55 58/91/67
f 58/91/67 60/75/55 68/92/68
f 68/92/68 56/94/63 58/91/67
f 58/91/67 56/94/63 55/93/65
f 62/96/59 54/95/61 68/92/68
f 68/92/68 54/95/61 56/94/63
f 60/75/55 53/77/57 68/92/68
f 68/92/68 53/77/57 62/96/59
