# This file uses centimeters as units for non-parametric coordinates.

mtllib mouth.mtl
g default
v 0.000000 0.394230 6.477945
v 0.000000 1.689820 6.477945
v 0.000000 2.985408 6.477945
v 0.000000 4.280998 6.477945
v 0.000000 5.576587 6.477945
v 0.000000 6.872176 6.477945
v 0.000000 8.167765 6.477945
v 0.000000 9.463354 6.477945
v 0.000000 10.758944 6.477945
v 0.000000 12.054533 6.477945
v 0.000000 13.350121 6.477945
v -0.000000 0.394230 5.182356
v 0.000000 1.689820 5.182356
v 0.000000 2.985408 5.182356
v 0.000000 4.280998 5.182356
v 0.000000 5.576587 5.182356
v 0.000000 6.872176 5.182356
v 0.000000 8.167765 5.182356
v 0.000000 9.463354 5.182356
v 0.000000 10.758944 5.182356
v 0.000000 12.054533 5.182356
v 0.000000 13.350121 5.182356
v -0.000000 0.394230 3.886767
v -0.000000 1.689820 3.886767
v 0.000000 2.985408 3.886767
v 0.000000 4.280998 3.886767
v 0.000000 5.576587 3.886767
v 0.000000 6.872176 3.886767
v 0.000000 8.167765 3.886767
v 0.000000 9.463354 3.886767
v 0.000000 10.758944 3.886767
v 0.000000 12.054533 3.886767
v 0.000000 13.350121 3.886767
v -0.000000 0.394230 2.591178
v -0.000000 1.689820 2.591178
v -0.000000 2.985408 2.591178
v 0.000000 4.280998 2.591178
v 0.000000 5.576587 2.591178
v 0.000000 6.872176 2.591178
v 0.000000 8.167765 2.591178
v 0.000000 9.463354 2.591178
v 0.000000 10.758944 2.591178
v 0.000000 12.054533 2.591178
v 0.000000 13.350121 2.591178
v -0.000000 0.394230 1.295589
v -0.000000 1.689820 1.295589
v -0.000000 2.985408 1.295589
v -0.000000 4.280998 1.295589
v 0.000000 6.872176 1.295589
v 0.000000 8.167765 1.295589
v 0.000000 9.463354 1.295589
v 0.000000 10.758944 1.295589
v 0.000000 12.054533 1.295589
v 0.000000 13.350121 1.295589
v -0.000000 0.394230 0.000000
v -0.000000 1.689820 0.000000
v -0.000000 2.985408 0.000000
v 0.000000 8.167765 0.000000
v 0.000000 9.463354 0.000000
v 0.000000 10.758944 0.000000
v 0.000000 12.054533 0.000000
v 0.000000 13.350121 0.000000
v -0.000000 0.394230 -1.295589
v -0.000000 1.689820 -1.295589
v -0.000000 2.985408 -1.295589
v -0.000000 4.280998 -1.295589
v -0.000000 6.872176 -1.295589
v 0.000000 8.167765 -1.295589
v 0.000000 9.463354 -1.295589
v 0.000000 10.758944 -1.295589
v 0.000000 12.054533 -1.295589
v 0.000000 13.350121 -1.295589
v -0.000000 0.394230 -2.591178
v -0.000000 1.689820 -2.591178
v -0.000000 2.985408 -2.591178
v -0.000000 4.280998 -2.591178
v -0.000000 5.576587 -2.591178
v -0.000000 6.872176 -2.591178
v -0.000000 8.167765 -2.591178
v 0.000000 9.463354 -2.591178
v 0.000000 10.758944 -2.591178
v 0.000000 12.054533 -2.591178
v 0.000000 13.350121 -2.591178
v -0.000000 0.394230 -3.886767
v -0.000000 1.689820 -3.886767
v -0.000000 2.985408 -3.886767
v -0.000000 4.280998 -3.886767
v -0.000000 5.576587 -3.886767
v -0.000000 6.872176 -3.886767
v -0.000000 8.167765 -3.886767
v -0.000000 9.463354 -3.886767
v 0.000000 10.758944 -3.886767
v 0.000000 12.054533 -3.886767
v 0.000000 13.350121 -3.886767
v -0.000000 0.394230 -5.182357
v -0.000000 1.689820 -5.182357
v -0.000000 2.985408 -5.182357
v -0.000000 4.280998 -5.182357
v -0.000000 5.576587 -5.182357
v -0.000000 6.872176 -5.182357
v -0.000000 8.167765 -5.182357
v -0.000000 9.463354 -5.182357
v -0.000000 10.758944 -5.182357
v 0.000000 12.054533 -5.182357
v 0.000000 13.350121 -5.182357
v -0.000000 0.394230 -6.477945
v -0.000000 1.689820 -6.477945
v -0.000000 2.985408 -6.477945
v -0.000000 4.280998 -6.477945
v -0.000000 5.576587 -6.477945
v -0.000000 6.872176 -6.477945
v -0.000000 8.167765 -6.477945
v -0.000000 9.463354 -6.477945
v -0.000000 10.758944 -6.477945
v -0.000000 12.054533 -6.477945
v 0.000000 13.350121 -6.477945
v 1.209750 4.280998 1.295589
v 1.209750 5.576587 2.591178
v 1.209750 5.576587 1.295589
v 1.209750 6.872176 1.295589
v 1.209750 2.985408 -0.000000
v 1.209750 4.280998 -0.000000
v 1.209750 5.576587 -0.000000
v 1.209750 6.872176 -0.000000
v 1.209750 8.167765 -0.000000
v 1.209750 4.280998 -1.295589
v 1.209750 5.576587 -1.295589
v 1.209750 6.872176 -1.295589
v 1.209750 5.576587 -2.591178
vt 0.000000 0.000000
vt 0.100000 0.000000
vt 0.200000 0.000000
vt 0.300000 0.000000
vt 0.400000 0.000000
vt 0.500000 0.000000
vt 0.600000 0.000000
vt 0.700000 0.000000
vt 0.800000 0.000000
vt 0.900000 0.000000
vt 1.000000 0.000000
vt 0.000000 0.100000
vt 0.100000 0.100000
vt 0.200000 0.100000
vt 0.300000 0.100000
vt 0.400000 0.100000
vt 0.500000 0.100000
vt 0.600000 0.100000
vt 0.700000 0.100000
vt 0.800000 0.100000
vt 0.900000 0.100000
vt 1.000000 0.100000
vt 0.000000 0.200000
vt 0.100000 0.200000
vt 0.200000 0.200000
vt 0.300000 0.200000
vt 0.400000 0.200000
vt 0.500000 0.200000
vt 0.600000 0.200000
vt 0.700000 0.200000
vt 0.800000 0.200000
vt 0.900000 0.200000
vt 1.000000 0.200000
vt 0.000000 0.300000
vt 0.100000 0.300000
vt 0.200000 0.300000
vt 0.300000 0.300000
vt 0.400000 0.300000
vt 0.500000 0.300000
vt 0.600000 0.300000
vt 0.700000 0.300000
vt 0.800000 0.300000
vt 0.900000 0.300000
vt 1.000000 0.300000
vt 0.000000 0.400000
vt 0.100000 0.400000
vt 0.200000 0.400000
vt 0.300000 0.400000
vt 0.400000 0.400000
vt 0.500000 0.400000
vt 0.600000 0.400000
vt 0.700000 0.400000
vt 0.800000 0.400000
vt 0.900000 0.400000
vt 1.000000 0.400000
vt 0.000000 0.500000
vt 0.100000 0.500000
vt 0.200000 0.500000
vt 0.300000 0.500000
vt 0.400000 0.500000
vt 0.500000 0.500000
vt 0.600000 0.500000
vt 0.700000 0.500000
vt 0.800000 0.500000
vt 0.900000 0.500000
vt 1.000000 0.500000
vt 0.000000 0.600000
vt 0.100000 0.600000
vt 0.200000 0.600000
vt 0.300000 0.600000
vt 0.400000 0.600000
vt 0.500000 0.600000
vt 0.600000 0.600000
vt 0.700000 0.600000
vt 0.800000 0.600000
vt 0.900000 0.600000
vt 1.000000 0.600000
vt 0.000000 0.700000
vt 0.100000 0.700000
vt 0.200000 0.700000
vt 0.300000 0.700000
vt 0.400000 0.700000
vt 0.500000 0.700000
vt 0.600000 0.700000
vt 0.700000 0.700000
vt 0.800000 0.700000
vt 0.900000 0.700000
vt 1.000000 0.700000
vt 0.000000 0.800000
vt 0.100000 0.800000
vt 0.200000 0.800000
vt 0.300000 0.800000
vt 0.400000 0.800000
vt 0.500000 0.800000
vt 0.600000 0.800000
vt 0.700000 0.800000
vt 0.800000 0.800000
vt 0.900000 0.800000
vt 1.000000 0.800000
vt 0.000000 0.900000
vt 0.100000 0.900000
vt 0.200000 0.900000
vt 0.300000 0.900000
vt 0.400000 0.900000
vt 0.500000 0.900000
vt 0.600000 0.900000
vt 0.700000 0.900000
vt 0.800000 0.900000
vt 0.900000 0.900000
vt 1.000000 0.900000
vt 0.000000 1.000000
vt 0.100000 1.000000
vt 0.200000 1.000000
vt 0.300000 1.000000
vt 0.400000 1.000000
vt 0.500000 1.000000
vt 0.600000 1.000000
vt 0.700000 1.000000
vt 0.800000 1.000000
vt 0.900000 1.000000
vt 1.000000 1.000000
vt 0.300000 0.400000
vt 0.400000 0.300000
vt 0.500000 0.400000
vt 0.200000 0.500000
vt 0.600000 0.500000
vt 0.300000 0.600000
vt 0.500000 0.600000
vt 0.400000 0.700000
vn -1.000000 0.000000 0.000000
vn -1.000000 0.000000 0.000000
vn -1.000000 0.000000 0.000000
vn -1.000000 0.000000 0.000000
vn -1.000000 0.000000 0.000000
vn -1.000000 0.000000 0.000000
vn -1.000000 0.000000 0.000000
vn -1.000000 0.000000 0.000000
vn -1.000000 0.000000 0.000000
vn -1.000000 0.000000 0.000000
vn -1.000000 0.000000 0.000000
vn -1.000000 0.000000 0.000000
vn -1.000000 0.000000 0.000000
vn -1.000000 0.000000 0.000000
vn -1.000000 0.000000 0.000000
vn -1.000000 0.000000 0.000000
vn -1.000000 0.000000 0.000000
vn -1.000000 0.000000 0.000000
vn -1.000000 0.000000 0.000000
vn -1.000000 0.000000 0.000000
vn -1.000000 0.000000 0.000000
vn -1.000000 0.000000 0.000000
vn -1.000000 0.000000 0.000000
vn -1.000000 0.000000 0.000000
vn -1.000000 0.000000 0.000000
vn -1.000000 0.000000 0.000000
vn -1.000000 0.000000 0.000000
vn -1.000000 0.000000 0.000000
vn -1.000000 0.000000 0.000000
vn -1.000000 0.000000 0.000000
vn -1.000000 0.000000 0.000000
vn -1.000000 0.000000 0.000000
vn -1.000000 0.000000 0.000000
vn -1.000000 0.000000 0.000000
vn -1.000000 0.000000 0.000000
vn -1.000000 0.000000 0.000000
vn -1.000000 0.000000 0.000000
vn -1.000000 0.000000 0.000000
vn -1.000000 0.000000 0.000000
vn -1.000000 0.000000 0.000000
vn -1.000000 0.000000 0.000000
vn -1.000000 0.000000 0.000000
vn -1.000000 0.000000 0.000000
vn -1.000000 0.000000 0.000000
vn -1.000000 0.000000 0.000000
vn -1.000000 0.000000 0.000000
vn -1.000000 0.000000 0.000000
vn -1.000000 0.000000 0.000000
vn -1.000000 0.000000 0.000000
vn -1.000000 0.000000 0.000000
vn -1.000000 0.000000 0.000000
vn -1.000000 0.000000 0.000000
vn -1.000000 0.000000 0.000000
vn -1.000000 0.000000 0.000000
vn -1.000000 0.000000 0.000000
vn -1.000000 0.000000 0.000000
vn -1.000000 0.000000 0.000000
vn -1.000000 0.000000 0.000000
vn -1.000000 0.000000 0.000000
vn -1.000000 0.000000 0.000000
vn -1.000000 0.000000 0.000000
vn -1.000000 0.000000 0.000000
vn -1.000000 0.000000 0.000000
vn -1.000000 0.000000 0.000000
vn -1.000000 0.000000 0.000000
vn -1.000000 0.000000 0.000000
vn -1.000000 0.000000 0.000000
vn -1.000000 0.000000 0.000000
vn -1.000000 0.000000 0.000000
vn -1.000000 0.000000 0.000000
vn -1.000000 0.000000 0.000000
vn -1.000000 0.000000 0.000000
vn -1.000000 0.000000 0.000000
vn -1.000000 0.000000 0.000000
vn -1.000000 0.000000 0.000000
vn -1.000000 0.000000 0.000000
vn -1.000000 0.000000 0.000000
vn -1.000000 0.000000 0.000000
vn -1.000000 0.000000 0.000000
vn -1.000000 0.000000 0.000000
vn -1.000000 0.000000 0.000000
vn -1.000000 0.000000 0.000000
vn -1.000000 0.000000 0.000000
vn -1.000000 0.000000 0.000000
vn -1.000000 0.000000 0.000000
vn -1.000000 0.000000 0.000000
vn -1.000000 0.000000 0.000000
vn -1.000000 0.000000 0.000000
vn -1.000000 0.000000 0.000000
vn -1.000000 0.000000 0.000000
vn -1.000000 0.000000 0.000000
vn -1.000000 0.000000 0.000000
vn -1.000000 0.000000 0.000000
vn -1.000000 0.000000 0.000000
vn -1.000000 0.000000 0.000000
vn -1.000000 0.000000 0.000000
vn -1.000000 0.000000 0.000000
vn -1.000000 0.000000 0.000000
vn -1.000000 0.000000 0.000000
vn -1.000000 0.000000 0.000000
vn -1.000000 0.000000 0.000000
vn -1.000000 0.000000 0.000000
vn -1.000000 0.000000 0.000000
vn -1.000000 0.000000 0.000000
vn -1.000000 0.000000 0.000000
vn -1.000000 0.000000 0.000000
vn -1.000000 0.000000 0.000000
vn -1.000000 0.000000 0.000000
vn -1.000000 0.000000 0.000000
vn -1.000000 0.000000 0.000000
vn -1.000000 0.000000 0.000000
vn -1.000000 0.000000 0.000000
vn -1.000000 0.000000 0.000000
vn -1.000000 0.000000 0.000000
vn -1.000000 0.000000 0.000000
vn -1.000000 0.000000 0.000000
vn -1.000000 0.000000 0.000000
vn -1.000000 0.000000 0.000000
vn -1.000000 0.000000 0.000000
vn -1.000000 0.000000 0.000000
vn -1.000000 0.000000 0.000000
vn -1.000000 0.000000 0.000000
vn -1.000000 0.000000 0.000000
vn -1.000000 0.000000 0.000000
vn -1.000000 0.000000 0.000000
vn -1.000000 0.000000 0.000000
vn -1.000000 0.000000 0.000000
vn -1.000000 0.000000 0.000000
vn -1.000000 0.000000 0.000000
vn -0.000000 0.707107 -0.707107
vn 0.000000 0.707107 -0.707107
vn 0.000000 0.707107 -0.707107
vn 0.000000 0.707107 -0.707107
vn -0.000000 -0.707107 -0.707107
vn -0.000000 -0.707107 -0.707107
vn -0.000000 -0.707107 -0.707107
vn -0.000000 -0.707107 -0.707107
vn -0.000000 0.707107 -0.707107
vn -0.000000 0.707107 -0.707107
vn -0.000000 -0.707107 -0.707107
vn -0.000000 -0.707107 -0.707107
vn 0.000000 0.707107 0.707107
vn 0.000000 0.707107 0.707107
vn 0.000000 0.707107 0.707107
vn 0.000000 0.707107 0.707107
vn 0.000000 -0.707107 0.707107
vn 0.000000 -0.707107 0.707107
vn 0.000000 -0.707107 0.707107
vn -0.000000 -0.707107 0.707107
vn 0.000000 0.707107 0.707107
vn 0.000000 0.707107 0.707107
vn -0.000000 -0.707107 0.707107
vn -0.000000 -0.707107 0.707107
s 1
g pPlane1
usemtl initialShadingGroup
f 1/1/1 2/2/2 12/12/3
f 12/12/3 2/2/2 13/13/4
f 2/2/2 3/3/5 13/13/4
f 13/13/4 3/3/5 14/14/6
f 3/3/5 4/4/7 14/14/6
f 14/14/6 4/4/7 15/15/8
f 4/4/7 5/5/9 15/15/8
f 15/15/8 5/5/9 16/16/10
f 5/5/9 6/6/11 16/16/10
f 16/16/10 6/6/11 17/17/12
f 6/6/11 7/7/13 17/17/12
f 17/17/12 7/7/13 18/18/14
f 7/7/13 8/8/15 18/18/14
f 18/18/14 8/8/15 19/19/16
f 8/8/15 9/9/17 19/19/16
f 19/19/16 9/9/17 20/20/18
f 9/9/17 10/10/19 20/20/18
f 20/20/18 10/10/19 21/21/20
f 10/10/19 11/11/21 21/21/20
f 21/21/20 11/11/21 22/22/22
f 12/12/3 13/13/4 23/23/23
f 23/23/23 13/13/4 24/24/24
f 13/13/4 14/14/6 24/24/24
f 24/24/24 14/14/6 25/25/25
f 14/14/6 15/15/8 25/25/25
f 25/25/25 15/15/8 26/26/26
f 15/15/8 16/16/10 26/26/26
f 26/26/26 16/16/10 27/27/27
f 16/16/10 17/17/12 27/27/27
f 27/27/27 17/17/12 28/28/28
f 17/17/12 18/18/14 28/28/28
f 28/28/28 18/18/14 29/29/29
f 18/18/14 19/19/16 29/29/29
f 29/29/29 19/19/16 30/30/30
f 19/19/16 20/20/18 30/30/30
f 30/30/30 20/20/18 31/31/31
f 20/20/18 21/21/20 31/31/31
f 31/31/31 21/21/20 32/32/32
f 21/21/20 22/22/22 32/32/32
f 32/32/32 22/22/22 33/33/33
f 23/23/23 24/24/24 34/34/34
f 34/34/34 24/24/24 35/35/35
f 24/24/24 25/25/25 35/35/35
f 35/35/35 25/25/25 36/36/36
f 25/25/25 26/26/26 36/36/36
f 36/36/36 26/26/26 37/37/37
f 26/26/26 27/27/27 37/37/37
f 37/37/37 27/27/27 38/38/38
f 27/27/27 28/28/28 38/38/38
f 38/38/38 28/28/28 39/39/39
f 28/28/28 29/29/29 39/39/39
f 39/39/39 29/29/29 40/40/40
f 29/29/29 30/30/30 40/40/40
f 40/40/40 30/30/30 41/41/41
f 30/30/30 31/31/31 41/41/41
f 41/41/41 31/31/31 42/42/42
f 31/31/31 32/32/32 42/42/42
f 42/42/42 32/32/32 43/43/43
f 32/32/32 33/33/33 43/43/43
f 43/43/43 33/33/33 44/44/44
f 34/34/34 35/35/35 45/45/45
f 45/45/45 35/35/35 46/46/46
f 35/35/35 36/36/36 46/46/46
f 46/46/46 36/36/36 47/47/47
f 36/36/36 37/37/37 47/47/47
f 47/47/47 37/37/37 48/48/48
s 2
f 117/122/49 118/123/50 119/49/51
f 118/123/50 120/124/52 119/49/51
s 1
f 39/39/39 40/40/40 49/50/53
f 49/50/53 40/40/40 50/51/54
f 40/40/40 41/41/41 50/51/54
f 50/51/54 41/41/41 51/52/55
f 41/41/41 42/42/42 51/52/55
f 51/52/55 42/42/42 52/53/56
f 42/42/42 43/43/43 52/53/56
f 52/53/56 43/43/43 53/54/57
f 43/43/43 44/44/44 53/54/57
f 53/54/57 44/44/44 54/55/58
f 45/45/45 46/46/46 55/56/59
f 55/56/59 46/46/46 56/57/60
f 46/46/46 47/47/47 56/57/60
f 56/57/60 47/47/47 57/58/61
s 2
f 121/125/62 117/122/49 122/59/63
f 117/122/49 119/49/51 122/59/63
f 122/59/63 119/49/51 123/60/64
f 119/49/51 120/124/52 123/60/64
f 123/60/64 120/124/52 124/61/65
f 120/124/52 125/126/66 124/61/65
s 1
f 50/51/54 51/52/55 58/62/67
f 58/62/67 51/52/55 59/63/68
f 51/52/55 52/53/56 59/63/68
f 59/63/68 52/53/56 60/64/69
f 52/53/56 53/54/57 60/64/69
f 60/64/69 53/54/57 61/65/70
f 53/54/57 54/55/58 61/65/70
f 61/65/70 54/55/58 62/66/71
f 55/56/59 56/57/60 63/67/72
f 63/67/72 56/57/60 64/68/73
f 56/57/60 57/58/61 64/68/73
f 64/68/73 57/58/61 65/69/74
s 2
f 121/125/62 122/59/63 126/127/75
f 122/59/63 123/60/64 126/127/75
f 126/127/75 123/60/64 127/71/76
f 123/60/64 124/61/65 127/71/76
f 127/71/76 124/61/65 128/72/77
f 124/61/65 125/126/66 128/128/77
s 1
f 58/62/67 59/63/68 68/73/78
f 68/73/78 59/63/68 69/74/79
f 59/63/68 60/64/69 69/74/79
f 69/74/79 60/64/69 70/75/80
f 60/64/69 61/65/70 70/75/80
f 70/75/80 61/65/70 71/76/81
f 61/65/70 62/66/71 71/76/81
f 71/76/81 62/66/71 72/77/82
f 63/67/72 64/68/73 73/78/83
f 73/78/83 64/68/73 74/79/84
f 64/68/73 65/69/74 74/79/84
f 74/79/84 65/69/74 75/80/85
f 65/69/74 66/70/86 75/80/85
f 75/80/85 66/70/86 76/81/87
s 2
f 126/127/75 127/71/76 129/129/88
f 127/71/76 128/128/77 129/129/88
s 1
f 67/72/89 68/73/78 78/83/90
f 78/83/90 68/73/78 79/84/91
f 68/73/78 69/74/79 79/84/91
f 79/84/91 69/74/79 80/85/92
f 69/74/79 70/75/80 80/85/92
f 80/85/92 70/75/80 81/86/93
f 70/75/80 71/76/81 81/86/93
f 81/86/93 71/76/81 82/87/94
f 71/76/81 72/77/82 82/87/94
f 82/87/94 72/77/82 83/88/95
f 73/78/83 74/79/84 84/89/96
f 84/89/96 74/79/84 85/90/97
f 74/79/84 75/80/85 85/90/97
f 85/90/97 75/80/85 86/91/98
f 75/80/85 76/81/87 86/91/98
f 86/91/98 76/81/87 87/92/99
f 76/81/87 77/82/100 87/92/99
f 87/92/99 77/82/100 88/93/101
f 77/82/100 78/83/90 88/93/101
f 88/93/101 78/83/90 89/94/102
f 78/83/90 79/84/91 89/94/102
f 89/94/102 79/84/91 90/95/103
f 79/84/91 80/85/92 90/95/103
f 90/95/103 80/85/92 91/96/104
f 80/85/92 81/86/93 91/96/104
f 91/96/104 81/86/93 92/97/105
f 81/86/93 82/87/94 92/97/105
f 92/97/105 82/87/94 93/98/106
f 82/87/94 83/88/95 93/98/106
f 93/98/106 83/88/95 94/99/107
f 84/89/96 85/90/97 95/100/108
f 95/100/108 85/90/97 96/101/109
f 85/90/97 86/91/98 96/101/109
f 96/101/109 86/91/98 97/102/110
f 86/91/98 87/92/99 97/102/110
f 97/102/110 87/92/99 98/103/111
f 87/92/99 88/93/101 98/103/111
f 98/103/111 88/93/101 99/104/112
f 88/93/101 89/94/102 99/104/112
f 99/104/112 89/94/102 100/105/113
f 89/94/102 90/95/103 100/105/113
f 100/105/113 90/95/103 101/106/114
f 90/95/103 91/96/104 101/106/114
f 101/106/114 91/96/104 102/107/115
f 91/96/104 92/97/105 102/107/115
f 102/107/115 92/97/105 103/108/116
f 92/97/105 93/98/106 103/108/116
f 103/108/116 93/98/106 104/109/117
f 93/98/106 94/99/107 104/109/117
f 104/109/117 94/99/107 105/110/118
f 95/100/108 96/101/109 106/111/119
f 106/111/119 96/101/109 107/112/120
f 96/101/109 97/102/110 107/112/120
f 107/112/120 97/102/110 108/113/121
f 97/102/110 98/103/111 108/113/121
f 108/113/121 98/103/111 109/114/122
f 98/103/111 99/104/112 109/114/122
f 109/114/122 99/104/112 110/115/123
f 99/104/112 100/105/113 110/115/123
f 110/115/123 100/105/113 111/116/124
f 100/105/113 101/106/114 111/116/124
f 111/116/124 101/106/114 112/117/125
f 101/106/114 102/107/115 112/117/125
f 112/117/125 102/107/115 113/118/126
f 102/107/115 103/108/116 113/118/126
f 113/118/126 103/108/116 114/119/127
f 103/108/116 104/109/117 114/119/127
f 114/119/127 104/109/117 115/120/128
f 104/109/117 105/110/118 115/120/128
f 115/120/128 105/110/118 116/121/129
f 67/72/89 58/62/67 68/73/78
f 77/82/100 67/72/89 78/83/90
f 38/38/38 39/39/39 49/50/53
f 49/50/53 50/51/54 58/62/67
f 66/70/86 77/82/100 76/81/87
f 57/58/61 66/70/86 65/69/74
f 47/47/47 48/48/48 57/58/61
f 37/37/37 38/38/38 48/48/48
s 3
usemtl lambert3SG
f 48/48/130 38/38/131 117/122/132
f 117/122/132 38/38/131 118/123/133
s 4
f 38/38/134 49/50/135 118/123/136
f 118/123/136 49/50/135 120/124/137
s 3
f 57/58/138 48/48/130 121/125/139
f 121/125/139 48/48/130 117/122/132
s 4
f 49/50/135 58/62/140 120/124/137
f 120/124/137 58/62/140 125/126/141
s 5
f 66/70/142 57/58/143 126/127/144
f 126/127/144 57/58/143 121/125/145
s 6
f 58/62/146 67/72/147 125/126/148
f 125/126/148 67/72/147 128/128/149
s 5
f 77/82/150 66/70/142 129/129/151
f 129/129/151 66/70/142 126/127/144
s 6
f 67/72/147 77/82/152 128/128/149
f 128/128/149 77/82/152 129/129/153
